<mxfile host="app.diagrams.net" modified="2024-05-11T02:35:26.179Z" agent="Mozilla/5.0 (Macintosh; Intel Mac OS X 10_15_7) AppleWebKit/537.36 (KHTML, like Gecko) Chrome/124.0.0.0 Safari/537.36" version="24.0.2" etag="0ThuPy3cALX8WGWQ2ySl" type="github">
  <diagram name="Page-1" id="-LxK5Iw-fpjHFmr_yw1q">
    <mxGraphModel>
      <root>
        <mxCell id="0" />
        <mxCell id="1" parent="0" />
      </root>
    </mxGraphModel>
  </diagram>
</mxfile>
